<svg width="86" height="86" viewBox="0 0 86 86" fill="none" xmlns="http://www.w3.org/2000/svg">
<circle cx="43" cy="43" r="43" fill="#001F6D"/>
<g clip-path="url(#clip0)">
<path fill-rule="evenodd" clip-rule="evenodd" d="M35.7682 34.4394L36.7426 32.2577C36.0463 31.7665 35.6698 31.1721 35.8551 30.7584C36.1019 30.2069 37.2513 30.1861 38.425 30.7109C39.5987 31.2358 40.3507 32.1059 40.1027 32.6575C39.9185 33.0722 39.2245 33.187 38.3937 32.9958L37.2652 35.5205C36.811 36.5377 38.2072 37.4994 38.995 36.7115L44.4488 31.2578C43.7513 30.3066 43.5195 29.3484 43.9505 28.9185C44.4858 28.3821 45.8414 28.8722 46.9792 30.0123C48.1193 31.1501 48.6094 32.5057 48.073 33.041C47.6431 33.472 46.6849 33.2402 45.7337 32.5427L40.5453 37.73C39.44 38.833 40.6345 40.6752 42.0932 40.1168L44.3259 39.2629C44.1823 38.4252 44.3352 37.7392 44.7581 37.577C45.3235 37.3627 46.1508 38.1598 46.6096 39.3602C47.0684 40.5617 46.985 41.7087 46.4196 41.9243C45.9979 42.0865 45.4255 41.6763 44.9725 40.9556L42.391 41.9439C41.3494 42.3437 41.6588 44.0075 42.771 44.0075H50.4818C50.6614 42.8419 51.177 41.9996 51.7841 41.9996C52.5419 41.9996 53.1536 43.3054 53.1525 44.9159C53.1536 46.5252 52.5419 47.831 51.7841 47.831C51.177 47.831 50.6614 46.9887 50.4818 45.8231H43.1464C41.5846 45.8231 41.1281 47.97 42.5532 48.6073L44.7338 49.5817C45.225 48.8865 45.8194 48.5088 46.2331 48.6942C46.7846 48.941 46.8054 50.0903 46.2806 51.264C45.7557 52.4377 44.8856 53.1897 44.3341 52.9418C43.9193 52.7575 43.8046 52.0635 43.9957 51.2328L41.4711 50.1054C40.4549 49.6501 39.4921 51.0462 40.28 51.8341L45.7337 57.2878C46.6849 56.5903 47.6431 56.3586 48.073 56.7896C48.6094 57.3249 48.1193 58.6805 46.9792 59.8183C45.8414 60.9584 44.4858 61.4485 43.9505 60.912C43.5195 60.4822 43.7513 59.524 44.4488 58.5727L39.2592 53.3832C38.1573 52.2802 36.3151 53.4724 36.8736 54.93L37.7287 57.165C38.5663 57.0202 39.2523 57.1743 39.4145 57.5972C39.6288 58.1626 38.8317 58.9898 37.6313 59.4487C36.4298 59.9075 35.2828 59.8241 35.0673 59.2587C34.905 58.8369 35.3152 58.2645 36.0359 57.8115L35.0476 55.2289C34.6478 54.1873 32.984 54.4966 32.984 55.6089V63.3208C34.1496 63.5004 34.9919 64.016 34.9919 64.6232C34.9919 65.3809 33.6862 65.9927 32.0768 65.9915C30.4663 65.9927 29.1605 65.3809 29.1605 64.6232C29.1605 64.016 30.0028 63.5004 31.1684 63.3208V55.9855C31.1684 54.4237 29.0215 53.9671 28.3842 55.3923L27.4098 57.5728C28.105 58.0641 28.4827 58.6585 28.2973 59.0721C28.0505 59.6236 26.9012 59.6445 25.7275 59.1196C24.5538 58.5948 23.8018 57.7246 24.0498 57.1731C24.234 56.7583 24.928 56.6436 25.7587 56.8348L26.8861 54.3101C27.3414 53.294 25.9453 52.3312 25.1574 53.119L19.7037 58.5727C20.4012 59.524 20.6329 60.4822 20.2019 60.912C19.6666 61.4485 18.311 60.9584 17.1732 59.8183C16.0331 58.6805 15.543 57.3249 16.0795 56.7896C16.5093 56.3586 17.4675 56.5903 18.4188 57.2878L23.6083 52.0983C24.7113 50.9964 23.5191 49.1542 22.0615 49.7126L19.8265 50.5677C19.9713 51.4054 19.8172 52.0913 19.3943 52.2535C18.8289 52.4679 18.0017 51.6707 17.5428 50.4704C17.084 49.2689 17.1674 48.1218 17.7329 47.9063C18.1546 47.7441 18.727 48.1543 19.18 48.8749L21.7626 47.8866C22.8042 47.4869 22.4949 45.8231 21.3826 45.8231H13.6707C13.4911 46.9887 12.9755 47.831 12.3684 47.831C11.6106 47.831 10.9988 46.5252 11 44.9159C10.9988 43.3054 11.6106 41.9996 12.3684 41.9996C12.9755 41.9996 13.4911 42.8419 13.6707 44.0075H21.006C22.5679 44.0075 23.0244 41.8605 21.5992 41.2233L19.4187 40.2489C18.9274 40.944 18.333 41.3218 17.9194 41.1364C17.3679 40.8896 17.347 39.7402 17.8719 38.5665C18.3967 37.3928 19.2669 36.6409 19.8184 36.8888C20.2332 37.073 20.3479 37.7671 20.1567 38.5978L22.6814 39.7252C23.6975 40.1805 24.6604 38.7843 23.8725 37.9965L18.4188 32.5427C17.4675 33.2402 16.5093 33.472 16.0795 33.041C15.543 32.5057 16.0331 31.1501 17.1732 30.0123C18.311 28.8722 19.6666 28.3821 20.2019 28.9185C20.6329 29.3484 20.4012 30.3066 19.7037 31.2578L24.8932 36.4474C25.9951 37.5504 27.8373 36.3581 27.2789 34.9006L26.4238 32.6656C25.5861 32.8081 24.9002 32.6563 24.738 32.2334C24.5236 31.668 25.3208 30.8407 26.5211 30.3819C27.7226 29.9231 28.8697 30.0065 29.0852 30.5719C29.2474 30.9937 28.8384 31.566 28.1166 32.019L29.1049 34.6017C29.5046 35.6433 31.1684 35.3339 31.1684 34.2216V26.5097C30.0028 26.3301 29.1605 25.8145 29.1605 25.2074C29.1605 24.4497 30.4663 23.8379 32.0768 23.8379C33.6862 23.8379 34.9919 24.4497 34.9919 25.2074C34.9919 25.8145 34.1496 26.3301 32.984 26.5097V33.8462C32.984 35.4069 35.1333 35.8669 35.7682 34.4394Z" fill="white"/>
<path fill-rule="evenodd" clip-rule="evenodd" d="M65.2174 26.7801L65.7376 25.6156C65.3657 25.3526 65.1652 25.0352 65.2637 24.815C65.3958 24.5207 66.0099 24.5091 66.6356 24.7895C67.2624 25.0699 67.6644 25.5345 67.5323 25.8288C67.4339 26.0501 67.0631 26.1115 66.6193 26.0096L66.0168 27.3571C65.7735 27.9005 66.5197 28.4137 66.9403 27.9932L69.8519 25.0815C69.48 24.574 69.356 24.0619 69.5866 23.8325C69.8716 23.5463 70.5958 23.8082 71.2029 24.4165C71.8112 25.0236 72.0731 25.7477 71.7869 26.0328C71.5575 26.2633 71.0453 26.1393 70.5379 25.7674L67.7687 28.5366C67.1778 29.1263 67.8162 30.1088 68.5937 29.8111L69.7859 29.3557C69.7094 28.9073 69.7917 28.5412 70.0176 28.4555C70.3189 28.3408 70.7603 28.766 71.0059 29.4079C71.2504 30.0486 71.2064 30.6604 70.904 30.7762C70.6792 30.862 70.3733 30.6441 70.1312 30.2595L68.7536 30.7866C68.1974 30.9998 68.3619 31.8885 68.9563 31.8885H73.073C73.168 31.2663 73.4437 30.8156 73.7681 30.8156C74.1725 30.8156 74.4992 31.5131 74.4992 32.3728C74.4992 33.2325 74.1725 33.93 73.7681 33.93C73.4437 33.93 73.168 33.4793 73.073 32.8571H69.1568C68.3225 32.8571 68.0792 34.003 68.8393 34.3437L70.0037 34.8639C70.2667 34.4931 70.5842 34.2915 70.8043 34.39C71.0986 34.5221 71.1102 35.1362 70.8298 35.7618C70.5494 36.3887 70.0848 36.7907 69.7905 36.6586C69.5692 36.5601 69.5078 36.1894 69.6098 35.7456L68.2623 35.1431C67.72 34.8998 67.2056 35.646 67.6262 36.0666L70.5379 38.9782C71.0453 38.6063 71.5575 38.4823 71.7869 38.7129C72.0731 38.9979 71.8112 39.7221 71.2029 40.3292C70.5958 40.9375 69.8716 41.1993 69.5866 40.9132C69.356 40.6837 69.48 40.1716 69.8519 39.6641L67.0816 36.8938C66.493 36.3052 65.5094 36.9413 65.8083 37.7188L66.2636 38.9122C66.712 38.8357 67.0782 38.918 67.1639 39.1439C67.2786 39.4452 66.8534 39.8866 66.2115 40.1322C65.5708 40.3767 64.959 40.3327 64.8431 40.0303C64.7574 39.8055 64.9752 39.4996 65.3599 39.2575L64.8327 37.8787C64.6195 37.3237 63.7309 37.4882 63.7309 38.0826V42.1992C64.353 42.2943 64.8038 42.57 64.8038 42.8944C64.8038 43.2988 64.1063 43.6255 63.2465 43.6255C62.3868 43.6255 61.6893 43.2988 61.6893 42.8944C61.6893 42.57 62.14 42.2943 62.7622 42.1992V38.283C62.7622 37.4488 61.6163 37.2055 61.2757 37.9656L60.7555 39.13C61.1262 39.393 61.3278 39.7105 61.2293 39.9306C61.0973 40.2249 60.4832 40.2365 59.8575 39.9561C59.2307 39.6757 58.8286 39.2111 58.9607 38.9168C59.0592 38.6955 59.43 38.6341 59.8737 38.7361L60.4762 37.3886C60.7195 36.8463 59.9734 36.3319 59.5528 36.7525L56.6411 39.6641C57.0131 40.1716 57.137 40.6837 56.9065 40.9132C56.6214 41.1993 55.8973 40.9375 55.2902 40.3292C54.6819 39.7221 54.42 38.9979 54.7062 38.7129C54.9356 38.4823 55.4477 38.6063 55.9552 38.9782L58.7255 36.2079C59.3141 35.6193 58.678 34.6356 57.9006 34.9346L56.7072 35.3899C56.7836 35.8383 56.7014 36.2044 56.4755 36.2902C56.1742 36.4049 55.7328 35.9797 55.4871 35.3378C55.2427 34.6971 55.2867 34.0853 55.5891 33.9694C55.8139 33.8837 56.1197 34.1015 56.3619 34.4862L57.7407 33.959C58.2957 33.7458 58.1311 32.8571 57.5368 32.8571H53.4201C53.3251 33.4793 53.0494 33.93 52.7249 33.93C52.3206 33.93 51.9938 33.2325 51.9938 32.3728C51.9938 31.5131 52.3206 30.8156 52.7249 30.8156C53.0494 30.8156 53.3251 31.2663 53.4201 31.8885H57.3363C58.1705 31.8885 58.4139 30.7426 57.6538 30.402L56.4894 29.8818C56.2263 30.2525 55.9089 30.4541 55.6887 30.3556C55.3944 30.2235 55.3829 29.6095 55.6632 28.9838C55.9436 28.357 56.4082 27.9549 56.7025 28.087C56.9238 28.1855 56.9853 28.5563 56.8833 29L58.2308 29.6025C58.773 29.8458 59.2875 29.0997 58.8669 28.6791L55.9552 25.7674C55.4477 26.1393 54.9356 26.2633 54.7062 26.0328C54.42 25.7477 54.6819 25.0236 55.2902 24.4165C55.8973 23.8082 56.6214 23.5463 56.9065 23.8325C57.137 24.0619 57.0131 24.574 56.6411 25.0815L59.4114 27.8518C60 28.4404 60.9837 27.8043 60.6848 27.0269L60.2294 25.8335C59.781 25.9088 59.4149 25.8277 59.3292 25.6017C59.2145 25.3005 59.6397 24.8591 60.2816 24.6134C60.9223 24.3689 61.5341 24.413 61.6499 24.7154C61.7357 24.9402 61.5179 25.246 61.1332 25.4882L61.6604 26.867C61.8736 27.422 62.7622 27.2574 62.7622 26.6631V22.5464C62.14 22.4514 61.6893 22.1756 61.6893 21.8512C61.6893 21.4469 62.3868 21.1201 63.2465 21.1201C64.1063 21.1201 64.8038 21.4469 64.8038 21.8512C64.8038 22.1756 64.353 22.4514 63.7309 22.5464V26.4626C63.7309 27.2968 64.8779 27.5424 65.2174 26.7801Z" fill="white"/>
<path fill-rule="evenodd" clip-rule="evenodd" d="M65.7736 51.6976L66.215 50.7082C65.8987 50.4857 65.7284 50.2157 65.8118 50.028C65.9242 49.7789 66.4456 49.7685 66.9774 50.0072C67.5092 50.2447 67.8498 50.6398 67.7375 50.8901C67.654 51.0778 67.34 51.1287 66.9635 51.043L66.4514 52.1877C66.2451 52.6489 66.8789 53.0845 67.2358 52.7277L69.7083 50.2551C69.392 49.8241 69.2866 49.3896 69.4824 49.195C69.7245 48.9517 70.3386 49.1741 70.8554 49.6897C71.3709 50.2065 71.5934 50.8205 71.3501 51.0627C71.1554 51.2585 70.721 51.1531 70.2899 50.8368L67.9379 53.1888C67.4374 53.6893 67.9785 54.5236 68.64 54.271L69.6515 53.884C69.5866 53.504 69.6562 53.1923 69.8473 53.1193C70.1034 53.022 70.4788 53.3835 70.6873 53.928C70.8947 54.4726 70.8577 54.9917 70.6016 55.0901C70.4093 55.1631 70.1509 54.9777 69.9447 54.651L68.7744 55.0982C68.3029 55.2802 68.4431 56.0344 68.9471 56.0344H72.4427C72.5238 55.5061 72.7578 55.1237 73.0324 55.1237C73.3766 55.1237 73.6535 55.7158 73.6535 56.4457C73.6535 57.1757 73.3766 57.7677 73.0324 57.7677C72.7578 57.7677 72.5238 57.3854 72.4427 56.8571H69.1174C68.4095 56.8571 68.2021 57.8303 68.8486 58.12L69.8369 58.5614C70.0594 58.2463 70.3293 58.0748 70.517 58.1582C70.7661 58.2706 70.7766 58.792 70.5379 59.3238C70.3004 59.8556 69.9053 60.1963 69.655 60.0839C69.4673 60.0004 69.4163 59.6865 69.5021 59.3099L68.3573 58.7978C67.8973 58.5915 67.4605 59.2253 67.8174 59.5822L70.2899 62.0547C70.721 61.7384 71.1554 61.633 71.3501 61.8288C71.5934 62.0709 71.3709 62.685 70.8554 63.2018C70.3386 63.7174 69.7245 63.9398 69.4824 63.6965C69.2866 63.5019 69.392 63.0674 69.7083 62.6364L67.3551 60.2843C66.8557 59.7838 66.0204 60.3249 66.2741 60.9853L66.6611 61.9979C67.0411 61.9331 67.3528 62.0026 67.4258 62.1938C67.5231 62.4498 67.1616 62.8252 66.6171 63.0338C66.0725 63.2412 65.5534 63.2041 65.4549 62.948C65.3819 62.7557 65.5673 62.4973 65.8941 62.2911L65.4468 61.1209C65.2649 60.6493 64.5106 60.7883 64.5106 61.2935V64.7891C65.039 64.8702 65.4213 65.1043 65.4213 65.3789C65.4213 65.723 64.8293 65.9999 64.0993 65.9999C63.3694 65.9999 62.7773 65.723 62.7773 65.3789C62.7773 65.1043 63.1597 64.8702 63.688 64.7891V61.4638C63.688 60.7559 62.7148 60.5485 62.4251 61.195L61.9837 62.1833C62.2988 62.4058 62.4703 62.6757 62.3869 62.8634C62.2745 63.1126 61.7531 63.123 61.2213 62.8843C60.6895 62.6468 60.3488 62.2517 60.4612 62.0014C60.5446 61.8137 60.8586 61.7627 61.2352 61.8485L61.7473 60.7037C61.9535 60.2438 61.3198 59.807 60.9629 60.1638L58.4904 62.6364C58.8067 63.0674 58.9121 63.5019 58.7163 63.6965C58.4741 63.9398 57.8601 63.7174 57.3433 63.2018C56.8277 62.685 56.6053 62.0709 56.8486 61.8288C57.0432 61.633 57.4777 61.7384 57.9087 62.0547L60.2608 59.7015C60.7613 59.2021 60.2202 58.3668 59.5598 58.6205L58.5471 59.0075C58.612 59.3875 58.5425 59.6992 58.3513 59.7722C58.0953 59.8695 57.7199 59.508 57.5113 58.9635C57.3039 58.4189 57.341 57.8998 57.597 57.8013C57.7894 57.7284 58.0478 57.9137 58.254 58.2405L59.4242 57.7932C59.8958 57.6113 59.7567 56.8571 59.2516 56.8571H55.756C55.6749 57.3854 55.4408 57.7677 55.1662 57.7677C54.8221 57.7677 54.5452 57.1757 54.5452 56.4457C54.5452 55.7158 54.8221 55.1237 55.1662 55.1237C55.4408 55.1237 55.6749 55.5061 55.756 56.0344H59.0813C59.7892 56.0344 59.9966 55.0612 59.3501 54.7715L58.3617 54.3301C58.1393 54.6452 57.8693 54.8167 57.6816 54.7333C57.4325 54.6209 57.4221 54.0995 57.6608 53.5677C57.8983 53.0359 58.2934 52.6952 58.5437 52.8076C58.7314 52.891 58.7823 53.205 58.6966 53.5816L59.8413 54.0937C60.3013 54.2999 60.7381 53.6662 60.3813 53.3093L57.9087 50.8368C57.4777 51.1531 57.0432 51.2585 56.8486 51.0627C56.6053 50.8205 56.8277 50.2065 57.3433 49.6897C57.8601 49.1741 58.4741 48.9517 58.7163 49.195C58.9121 49.3896 58.8067 49.8241 58.4904 50.2551L60.8436 52.6072C61.3429 53.1077 62.1783 52.5666 61.9246 51.9062L61.5376 50.8935C61.1575 50.9573 60.8459 50.8889 60.7729 50.6977C60.6755 50.4417 61.037 50.0663 61.5816 49.8577C62.1262 49.6503 62.6452 49.6874 62.7437 49.9435C62.8167 50.1358 62.6313 50.3942 62.3046 50.6004L62.7518 51.7706C62.9337 52.2422 63.688 52.1032 63.688 51.598V48.1024C63.1597 48.0213 62.7773 47.7872 62.7773 47.5126C62.7773 47.1685 63.3694 46.8916 64.0993 46.8916C64.8293 46.8916 65.4213 47.1685 65.4213 47.5126C65.4213 47.7872 65.039 48.0213 64.5106 48.1024V51.4277C64.5106 52.1356 65.4851 52.3442 65.7736 51.6976Z" fill="white"/>
</g>
<defs>
<clipPath id="clip0">
<rect width="64" height="45" fill="white" transform="translate(11 21)"/>
</clipPath>
</defs>
</svg>
