<svg width="86" height="86" viewBox="0 0 86 86" fill="none" xmlns="http://www.w3.org/2000/svg">
<circle cx="43" cy="43" r="43" fill="#001F6D"/>
<g clip-path="url(#clip0)">
<path d="M57.2369 43.5495C56.9872 43.2113 56.904 42.535 56.4879 42.2814C55.9886 42.0278 55.5725 41.7742 55.1564 41.436C54.6571 40.9288 54.5739 39.9143 54.4074 39.238C53.9081 37.2091 53.9913 35.1802 53.8249 33.1513C53.7417 32.0523 53.2424 31.0378 52.9095 30.0234C52.5766 29.178 52.5766 22.4149 52.5766 21.4004C52.4934 20.4705 52.5766 19.287 51.9941 18.6107C51.4948 18.0189 50.829 17.8498 50.1633 17.6808C49.3311 17.4271 45.6694 16.2436 45.8359 15.1446C45.9191 14.891 46.4184 13.1157 46.6681 13.0311C47.0841 12.9466 47.1674 11.5095 47.2506 11.1713C47.417 10.6641 47.5002 10.0723 47.5002 9.48053C47.5002 7.02892 45.7526 5 43.6722 5C43.589 5 43.589 5 43.4225 5C43.3393 5 43.2561 5 43.2561 5C41.1756 5 39.428 7.02892 39.428 9.48053C39.428 10.0723 39.5112 10.6641 39.6777 11.1713C39.7609 11.5095 39.8441 12.9466 40.2602 13.0311C40.5098 13.1157 41.0924 14.8064 41.0924 15.1446C41.2588 16.2436 37.6804 17.3426 36.765 17.6808C36.0992 17.8498 35.4335 18.1034 34.9342 18.6107C34.3516 19.287 34.3516 20.5551 34.3516 21.4004C34.2684 22.3304 34.2684 29.0934 34.0188 30.0234C33.6859 31.0378 33.1866 32.0523 33.1034 33.1513C32.8537 35.1802 33.0201 37.2091 32.5208 39.238C32.3544 39.9143 32.3544 40.9288 31.7719 41.436C31.3558 41.7742 30.8564 42.0278 30.4403 42.2814C30.0243 42.535 29.941 43.1268 29.6914 43.5495C29.5249 43.8031 28.5263 44.9021 29.2753 44.9021C30.1907 44.9021 30.1907 43.5495 30.8564 43.465C30.7732 44.6485 30.3571 45.663 30.2739 46.762C30.2739 46.931 30.3571 47.7764 30.7732 47.3537C30.9397 47.1847 31.2725 45.3248 31.3558 45.3248C31.2725 45.832 31.1061 47.1001 31.0229 47.6073C31.0229 47.861 31.439 48.1146 31.6054 47.861C31.7719 47.5228 32.1879 45.5784 32.3544 45.4093C32.2712 46.0011 32.2712 46.5929 32.1879 47.1847C32.1047 47.4383 32.1047 47.6073 32.1879 47.861C32.3544 48.03 32.6873 48.03 32.7705 47.7764C32.8537 47.2692 33.0201 46.6774 33.1034 46.1702C33.1034 46.0011 33.1866 44.733 33.4362 45.5784C33.5195 45.9166 33.4362 46.6774 33.6859 46.931C34.1852 47.4383 34.1852 46.0857 34.1852 45.9166C34.0188 44.6485 34.5181 43.634 34.6013 42.366C34.6845 41.0979 35.1006 39.9144 35.4335 38.7308C35.7664 37.2937 36.2657 35.941 36.6818 34.5884C37.0979 33.3204 37.2643 32.1368 37.1811 30.8687C37.1811 30.277 37.3475 29.6007 37.4307 29.0089C37.514 28.3326 37.4307 27.3181 37.7636 26.6418C38.2629 29.0934 38.0133 34.673 38.0133 35.1802C38.0133 35.8565 37.9301 36.4483 37.7636 37.04C37.5972 38.3081 37.2643 39.5762 37.0979 40.8443C37.0147 41.9433 36.6818 43.0423 36.6818 44.1413C36.5985 45.4939 36.8482 46.931 36.765 48.2836C36.765 49.0445 37.2643 55.6385 37.4307 55.9766C37.5972 56.3148 36.9314 60.9644 36.9314 61.218C36.6818 62.1479 36.6818 63.2469 36.6818 64.1769C36.6818 66.7976 37.5972 69.0801 38.0965 71.8699C38.1797 72.208 38.1797 72.7152 38.2629 73.307C38.3461 74.9132 38.0965 76.3504 37.0147 77.703C35.6831 79.3938 35.7664 79.5629 37.5972 80.5773C37.7636 80.6618 38.0965 80.8309 38.3462 80.8309C38.5958 80.8309 38.7622 80.7464 39.0119 80.5773C40.0938 79.0556 40.9259 77.5339 40.8427 75.4205C40.8427 74.4905 40.7595 73.3915 40.8427 72.5462C41.0924 70.0946 41.2588 67.5584 41.342 67.3893C41.5085 66.7976 41.8413 63.5006 41.6749 62.4016C41.0924 61.5562 41.5085 60.7108 41.6749 59.7809C41.8413 58.9355 42.6735 50.9889 42.7568 50.3126C42.9232 49.129 43.1729 47.861 43.1729 46.6774C43.1729 46.2547 42.9232 45.4939 43.3393 45.4093C43.7554 45.4939 43.5057 46.2547 43.5057 46.6774C43.5057 47.861 43.7554 49.129 43.9218 50.3126C44.005 50.9043 44.8372 58.9355 45.0037 59.7809C45.2533 60.7108 45.5862 61.6407 45.503 62.5706C45.3366 63.6696 45.6694 66.9666 45.8359 67.5584C45.9191 67.7275 46.0855 70.2636 46.3352 72.7152C46.4184 73.5606 46.3352 74.6596 46.3352 75.5895C46.252 77.6185 47.0842 79.2247 48.166 80.7464C48.4157 80.9155 48.5821 81 48.8318 81C49.0814 81 49.3311 80.7464 49.5807 80.7464C51.3283 79.7319 51.4115 79.5629 50.1633 77.8721C49.0814 76.5195 48.915 75.0823 48.915 73.4761C48.915 72.9689 48.9982 72.4616 49.0814 72.0389C49.5807 69.2492 50.5794 66.9666 50.4961 64.3459C50.4961 63.3315 50.4961 62.2325 50.2465 61.3871C50.1633 61.1335 49.4975 56.4839 49.7472 56.1457C49.9136 55.8921 50.4129 49.2136 50.4129 48.4527C50.4129 47.1001 50.5794 45.663 50.4961 44.3103C50.4961 43.2113 50.1633 42.1124 50.08 41.0134C49.9136 39.7453 49.5807 38.4772 49.4143 37.2091C49.3311 36.5328 49.1646 36.0256 49.1646 35.3493C49.1646 34.842 48.915 29.2625 49.4143 26.8109C49.6639 27.4027 49.5807 28.5017 49.7472 29.178C49.8304 29.7697 49.9968 30.4461 49.9968 31.0378C49.9136 32.3059 50.08 33.4894 50.4961 34.7575C50.9954 36.1101 51.4115 37.4627 51.7444 38.8999C52.0773 40.0834 52.5766 41.3515 52.5766 42.535C52.6598 43.8031 53.1591 44.8176 52.9927 46.0857C52.9927 46.2547 52.9927 47.6073 53.492 47.1001C53.7417 46.8465 53.6585 46.0857 53.7417 45.7475C53.9913 44.9021 53.9913 46.0857 53.9913 46.3393C54.0746 46.8465 54.1578 47.4383 54.3242 47.9455C54.4074 48.1991 54.7403 48.2836 54.9067 48.03C54.99 47.7764 54.99 47.6073 54.9067 47.3537C54.8235 46.762 54.8235 46.1702 54.7403 45.5784C54.9067 45.7475 55.3228 47.6919 55.4893 48.03C55.6557 48.3682 56.0718 48.1146 56.0718 47.7764C55.9886 47.2692 55.8221 46.0011 55.7389 45.4939C55.8221 45.4939 56.155 47.3537 56.3215 47.5228C56.6543 47.9455 56.8208 47.1001 56.8208 46.931C56.7376 45.832 56.3215 44.733 56.2382 43.634C56.904 43.7186 56.904 44.9867 57.8194 45.0712C58.4019 44.9021 57.4033 43.8031 57.2369 43.5495Z" fill="white"/>
</g>
<defs>
<clipPath id="clip0">
<rect width="29" height="76" fill="white" transform="translate(29 5)"/>
</clipPath>
</defs>
</svg>
