<?xml version="1.0" encoding="UTF-8"?> <svg xmlns="http://www.w3.org/2000/svg" width="29" height="76" viewBox="0 0 29 76" fill="none"> <path d="M28.2369 38.5495C27.9872 38.2113 27.904 37.535 27.4879 37.2814C26.9886 37.0278 26.5725 36.7742 26.1564 36.436C25.6571 35.9288 25.5739 34.9143 25.4074 34.238C24.9081 32.2091 24.9913 30.1802 24.8249 28.1513C24.7417 27.0523 24.2424 26.0378 23.9095 25.0234C23.5766 24.178 23.5766 17.4149 23.5766 16.4004C23.4934 15.4705 23.5766 14.287 22.9941 13.6107C22.4948 13.0189 21.829 12.8498 21.1633 12.6808C20.3311 12.4271 16.6694 11.2436 16.8359 10.1446C16.9191 9.89099 17.4184 8.11568 17.6681 8.03115C18.0841 7.94661 18.1674 6.50946 18.2506 6.1713C18.417 5.66407 18.5002 5.0723 18.5002 4.48053C18.5002 2.02892 16.7526 0 14.6722 0C14.589 0 14.589 0 14.4225 0C14.3393 0 14.2561 0 14.2561 0C12.1756 0 10.428 2.02892 10.428 4.48053C10.428 5.0723 10.5112 5.66407 10.6777 6.1713C10.7609 6.50946 10.8441 7.94661 11.2602 8.03115C11.5098 8.11568 12.0924 9.80645 12.0924 10.1446C12.2588 11.2436 8.6804 12.3426 7.76499 12.6808C7.09924 12.8498 6.43348 13.1034 5.93417 13.6107C5.35164 14.287 5.35164 15.5551 5.35164 16.4004C5.26842 17.3304 5.26842 24.0934 5.01876 25.0234C4.68589 26.0378 4.18657 27.0523 4.10335 28.1513C3.8537 30.1802 4.02013 32.2091 3.52082 34.238C3.35438 34.9143 3.35438 35.9288 2.77185 36.436C2.35575 36.7742 1.85644 37.0278 1.44034 37.2814C1.02425 37.535 0.941029 38.1268 0.691372 38.5495C0.524933 38.8031 -0.473695 39.9021 0.275276 39.9021C1.19069 39.9021 1.19069 38.5495 1.85644 38.465C1.77322 39.6485 1.35712 40.663 1.27391 41.762C1.27391 41.931 1.35712 42.7764 1.77322 42.3537C1.93966 42.1847 2.27253 40.3248 2.35575 40.3248C2.27253 40.832 2.1061 42.1001 2.02288 42.6073C2.02288 42.861 2.43897 43.1146 2.60541 42.861C2.77185 42.5228 3.18794 40.5784 3.35438 40.4093C3.27116 41.0011 3.27116 41.5929 3.18794 42.1847C3.10472 42.4383 3.10472 42.6073 3.18794 42.861C3.35438 43.03 3.68726 43.03 3.77048 42.7764C3.8537 42.2692 4.02013 41.6774 4.10335 41.1702C4.10335 41.0011 4.18657 39.733 4.43623 40.5784C4.51945 40.9166 4.43623 41.6774 4.68588 41.931C5.1852 42.4383 5.1852 41.0857 5.1852 40.9166C5.01876 39.6485 5.51808 38.634 5.6013 37.366C5.68451 36.0979 6.10061 34.9144 6.43349 33.7308C6.76636 32.2937 7.26568 30.941 7.68177 29.5884C8.09787 28.3204 8.2643 27.1368 8.18109 25.8687C8.18109 25.277 8.34752 24.6007 8.43074 24.0089C8.51396 23.3326 8.43074 22.3181 8.76362 21.6418C9.26293 24.0934 9.01328 29.673 9.01328 30.1802C9.01328 30.8565 8.93006 31.4483 8.76362 32.04C8.59718 33.3081 8.26431 34.5762 8.09787 35.8443C8.01465 36.9433 7.68177 38.0423 7.68177 39.1413C7.59855 40.4939 7.84821 41.931 7.76499 43.2836C7.76499 44.0445 8.2643 50.6385 8.43074 50.9766C8.59718 51.3148 7.93143 55.9644 7.93143 56.218C7.68177 57.1479 7.68177 58.2469 7.68177 59.1769C7.68177 61.7976 8.59718 64.0801 9.0965 66.8699C9.17972 67.208 9.17971 67.7152 9.26293 68.307C9.34615 69.9132 9.09649 71.3504 8.01465 72.703C6.68314 74.3938 6.76636 74.5629 8.59718 75.5773C8.76362 75.6618 9.0965 75.8309 9.34615 75.8309C9.59581 75.8309 9.76225 75.7464 10.0119 75.5773C11.0938 74.0556 11.9259 72.5339 11.8427 70.4205C11.8427 69.4905 11.7595 68.3915 11.8427 67.5462C12.0924 65.0946 12.2588 62.5584 12.342 62.3893C12.5085 61.7976 12.8413 58.5006 12.6749 57.4016C12.0924 56.5562 12.5085 55.7108 12.6749 54.7809C12.8413 53.9355 13.6735 45.9889 13.7568 45.3126C13.9232 44.129 14.1729 42.861 14.1729 41.6774C14.1729 41.2547 13.9232 40.4939 14.3393 40.4093C14.7554 40.4939 14.5057 41.2547 14.5057 41.6774C14.5057 42.861 14.7554 44.129 14.9218 45.3126C15.005 45.9043 15.8372 53.9355 16.0037 54.7809C16.2533 55.7108 16.5862 56.6407 16.503 57.5706C16.3366 58.6696 16.6694 61.9666 16.8359 62.5584C16.9191 62.7275 17.0855 65.2636 17.3352 67.7152C17.4184 68.5606 17.3352 69.6596 17.3352 70.5895C17.252 72.6185 18.0842 74.2247 19.166 75.7464C19.4157 75.9155 19.5821 76 19.8318 76C20.0814 76 20.3311 75.7464 20.5807 75.7464C22.3283 74.7319 22.4115 74.5629 21.1633 72.8721C20.0814 71.5195 19.915 70.0823 19.915 68.4761C19.915 67.9689 19.9982 67.4616 20.0814 67.0389C20.5807 64.2492 21.5794 61.9666 21.4961 59.3459C21.4961 58.3315 21.4961 57.2325 21.2465 56.3871C21.1633 56.1335 20.4975 51.4839 20.7472 51.1457C20.9136 50.8921 21.4129 44.2136 21.4129 43.4527C21.4129 42.1001 21.5794 40.663 21.4961 39.3103C21.4961 38.2113 21.1633 37.1124 21.08 36.0134C20.9136 34.7453 20.5807 33.4772 20.4143 32.2091C20.3311 31.5328 20.1646 31.0256 20.1646 30.3493C20.1646 29.842 19.915 24.2625 20.4143 21.8109C20.6639 22.4027 20.5807 23.5017 20.7472 24.178C20.8304 24.7697 20.9968 25.4461 20.9968 26.0378C20.9136 27.3059 21.08 28.4894 21.4961 29.7575C21.9954 31.1101 22.4115 32.4627 22.7444 33.8999C23.0773 35.0834 23.5766 36.3515 23.5766 37.535C23.6598 38.8031 24.1591 39.8176 23.9927 41.0857C23.9927 41.2547 23.9927 42.6073 24.492 42.1001C24.7417 41.8465 24.6585 41.0857 24.7417 40.7475C24.9913 39.9021 24.9913 41.0857 24.9913 41.3393C25.0746 41.8465 25.1578 42.4383 25.3242 42.9455C25.4074 43.1991 25.7403 43.2836 25.9067 43.03C25.99 42.7764 25.99 42.6073 25.9067 42.3537C25.8235 41.762 25.8235 41.1702 25.7403 40.5784C25.9067 40.7475 26.3228 42.6919 26.4893 43.03C26.6557 43.3682 27.0718 43.1146 27.0718 42.7764C26.9886 42.2692 26.8221 41.0011 26.7389 40.4939C26.8221 40.4939 27.155 42.3537 27.3215 42.5228C27.6543 42.9455 27.8208 42.1001 27.8208 41.931C27.7376 40.832 27.3215 39.733 27.2382 38.634C27.904 38.7186 27.904 39.9867 28.8194 40.0712C29.4019 39.9021 28.4033 38.8031 28.2369 38.5495Z" fill="#303F82"></path> </svg> 