<svg width="136" height="69" viewBox="0 0 136 69" fill="none" xmlns="http://www.w3.org/2000/svg">
<g clip-path="url(#clip0)">
<path d="M131.917 49.5827H131.016V46.1687H132.45C132.623 46.1674 132.795 46.1867 132.963 46.2261C133.119 46.2644 133.268 46.3252 133.406 46.4067C133.546 46.492 133.658 46.6166 133.728 46.7651C133.809 46.9358 133.849 47.1231 133.845 47.3122C133.863 47.5307 133.809 47.749 133.691 47.9338C133.573 48.1185 133.398 48.2595 133.193 48.3353L134.132 49.5745H133.116L132.297 48.4611H131.909L131.917 49.5827ZM131.917 46.9511V47.7389H132.491C132.605 47.7455 132.718 47.7095 132.808 47.6377C132.847 47.6003 132.878 47.5547 132.897 47.5041C132.917 47.4535 132.926 47.3992 132.922 47.345C132.926 47.2908 132.917 47.2364 132.898 47.1858C132.878 47.1352 132.847 47.0896 132.808 47.0523C132.718 46.9805 132.605 46.9445 132.491 46.9511H131.917Z" fill="#001F6D"/>
<path d="M132.376 51.5907C131.659 51.5907 130.959 51.3778 130.363 50.9789C129.767 50.58 129.302 50.013 129.028 49.3497C128.754 48.6864 128.682 47.9565 128.822 47.2523C128.962 46.5481 129.307 45.9013 129.814 45.3936C130.32 44.8859 130.966 44.5402 131.669 44.4001C132.372 44.2601 133.101 44.332 133.763 44.6067C134.425 44.8815 134.991 45.3468 135.389 45.9437C135.788 46.5407 136 47.2426 136 47.9605C135.999 48.9231 135.617 49.846 134.938 50.5266C134.258 51.2073 133.337 51.5899 132.376 51.5907ZM132.376 45.266C131.844 45.2654 131.324 45.423 130.881 45.7187C130.438 46.0145 130.093 46.4351 129.889 46.9275C129.685 47.4198 129.631 47.9617 129.735 48.4845C129.838 49.0074 130.094 49.4878 130.47 49.8649C130.846 50.242 131.326 50.4989 131.848 50.6031C132.369 50.7073 132.91 50.6541 133.402 50.4502C133.894 50.2464 134.314 49.901 134.61 49.4578C134.906 49.0147 135.063 48.4936 135.063 47.9605C135.063 47.2466 134.779 46.562 134.276 46.0569C133.772 45.5518 133.089 45.2674 132.376 45.266Z" fill="#001F6D"/>
<path d="M127.488 66.0155H2.21753V69H127.488V66.0155Z" fill="white"/>
<path d="M127.488 36.9032H2.21753V38.3969H127.488V36.9032Z" fill="white"/>
<path d="M22.1724 4.44262C20.9985 4.439 19.874 3.96934 19.0452 3.13658C18.2164 2.30382 17.751 1.17589 17.751 0H13.3051C13.3051 1.17825 12.8378 2.30825 12.0061 3.1414C11.1744 3.97456 10.0463 4.44262 8.87006 4.44262H2.21753V6.56544H28.8249V4.44262H22.1724Z" fill="#001F6D"/>
<path d="M15.5225 15.623L15.629 15.5464C16.431 15.0147 17.1647 14.3862 17.8137 13.6753L17.3058 13.2704C16.5522 12.6741 15.9418 11.9159 15.5198 11.0518C15.1005 11.9161 14.4918 12.6745 13.7392 13.2704L13.2285 13.6753C13.8769 14.3861 14.6107 15.0137 15.4133 15.5437L15.5225 15.623Z" fill="#001F6D"/>
<path d="M19.2476 18.9796C19.7091 18.6239 20.1734 18.2628 20.6403 17.8853C20.9948 17.5939 21.3229 17.2716 21.6207 16.9224C20.6758 16.0552 19.7255 15.24 18.868 14.5342C18.2026 15.2768 17.4518 15.9379 16.6313 16.5038C17.5455 17.2833 18.4187 18.1097 19.2476 18.9796Z" fill="#001F6D"/>
<path d="M16.2025 7.82381V7.90314C16.1631 8.72211 16.3191 9.53871 16.6577 10.2852C16.9964 11.0316 17.5078 11.6865 18.1497 12.1953L18.6085 12.5619C19.2175 11.4676 19.3868 10.3269 19.3868 8.97276C19.3704 8.50497 19.3868 7.977 19.3868 7.82108L16.2025 7.82381Z" fill="#001F6D"/>
<path d="M23.5241 13.295L23.1336 13.0488C22.5301 12.6713 22.0276 12.3594 21.7163 12.1515C21.2993 11.8826 20.9032 11.5826 20.531 11.2542C20.3715 12.0268 20.0825 12.7668 19.6763 13.4427C20.5283 14.1458 21.4787 14.9582 22.429 15.8254C22.9083 15.0363 23.2768 14.1848 23.5241 13.295Z" fill="#001F6D"/>
<path d="M11.9534 20.8179C11.0695 21.8197 10.2685 22.892 9.55835 24.024C10.533 24.7104 11.4517 25.4733 12.3057 26.3055C12.9345 25.1323 13.6959 24.0354 14.5751 23.0365C13.745 22.2465 12.8696 21.5057 11.9534 20.8179Z" fill="#001F6D"/>
<path d="M19.0892 20.8179C18.1724 21.5049 17.2969 22.2457 16.4675 23.0365C17.3466 24.0348 18.1072 25.1318 18.7342 26.3055C19.5891 25.4733 20.5087 24.7104 21.4842 24.024C20.7731 22.8926 19.9722 21.8205 19.0892 20.8179Z" fill="#001F6D"/>
<path d="M11.6582 8.97275C11.6582 10.3406 11.8275 11.4704 12.4365 12.5646L12.898 12.198C13.5313 11.6971 14.0375 11.0534 14.3754 10.3195C14.7133 9.58548 14.8733 8.78194 14.8425 7.97426C14.8425 7.9387 14.8425 7.9004 14.8425 7.8621V7.82654H11.6609C11.6637 7.97973 11.6746 8.50497 11.6582 8.97275Z" fill="#001F6D"/>
<path d="M5.75406 10.8248V10.1162C5.16145 10.3898 4.1947 10.7235 3.02313 11.1311L2.20386 11.4184V13.9734C2.22046 14.3563 2.25784 14.7381 2.31583 15.1169C3.30988 14.3564 4.70265 13.4509 5.95069 12.6549C5.83181 12.0518 5.76602 11.4394 5.75406 10.8248Z" fill="#001F6D"/>
<path d="M7.60293 16.7638C7.05537 15.9214 6.6245 15.0085 6.32213 14.05C5.0521 14.8269 3.82839 15.6773 2.65723 16.5969C3.02689 17.8844 3.66338 19.0794 4.52518 20.1039C5.47077 18.9189 6.49928 17.8027 7.60293 16.7638Z" fill="#001F6D"/>
<path d="M12.1771 14.5315C11.3196 15.24 10.3665 16.0552 9.42163 16.9197C9.71951 17.2689 10.0476 17.5912 10.402 17.8826C10.869 18.2629 11.3333 18.6239 11.7975 18.9768C12.6248 18.1055 13.4972 17.2782 14.411 16.4984C13.591 15.9341 12.841 15.2738 12.1771 14.5315Z" fill="#001F6D"/>
<path d="M2.58347 9.8427C3.56985 9.5273 4.53966 9.16208 5.48917 8.74846C5.76227 8.59527 5.76227 8.59527 5.76227 7.84024H7.12773V10.8494C7.13898 11.2014 7.17273 11.5522 7.22877 11.8999C7.805 11.5388 8.28564 11.2406 8.59424 11.0409C9.68661 10.3132 10.2901 9.76884 10.3202 8.97825V7.85119H2.21753V9.99863L2.58347 9.8427Z" fill="#001F6D"/>
<path d="M20.7551 7.82655V8.95362C20.7879 9.74421 21.386 10.2886 22.4811 11.0163C22.7787 11.216 23.2621 11.5169 23.8465 11.878C23.9009 11.5293 23.9338 11.1775 23.9448 10.8248V7.81561H25.3103C25.3103 8.57063 25.3103 8.57063 25.5834 8.72383C26.5329 9.13745 27.5027 9.50266 28.4891 9.81807L28.855 9.94664V7.79919H20.7551V7.82655Z" fill="#001F6D"/>
<path d="M28.8249 13.388V11.4184L28.0057 11.1311C26.845 10.7235 25.8783 10.3789 25.2747 10.1162V10.8248C25.2604 11.4426 25.19 12.058 25.0645 12.6631C26.3152 13.4509 27.7053 14.3564 28.702 15.1251C28.7593 14.7463 28.7958 14.3645 28.8113 13.9816L28.8249 13.388Z" fill="#001F6D"/>
<path d="M15.5226 24.0432C14.6327 25.0655 13.8748 26.196 13.2668 27.408C14.1271 28.5296 14.6842 29.7797 14.6842 31.1995H16.3583C16.3583 29.7797 16.9044 28.5296 17.7756 27.408C17.1685 26.1961 16.4116 25.0656 15.5226 24.0432Z" fill="#001F6D"/>
<path d="M10.8745 19.989C10.4321 19.6471 9.987 19.3024 9.54186 18.9386C9.14057 18.6057 8.76786 18.2396 8.42764 17.8443C7.37236 18.844 6.39203 19.9202 5.49463 21.0641C6.28933 21.7453 7.338 22.4565 8.44676 23.2253C9.17044 22.0847 9.98219 21.0026 10.8745 19.989Z" fill="#001F6D"/>
<path d="M7.91977 13.0488L7.53198 13.2923C7.78034 14.1787 8.14783 15.0272 8.62435 15.8145C9.57471 14.9473 10.536 14.1348 11.3744 13.4318C10.969 12.7558 10.6809 12.0158 10.5223 11.2433C10.1493 11.5717 9.75219 11.8716 9.33439 12.1406C9.01214 12.3594 8.51238 12.6713 7.91977 13.0488Z" fill="#001F6D"/>
<path d="M18.1662 19.8085C17.3323 18.9383 16.4497 18.1163 15.5227 17.3464C14.5945 18.1149 13.7118 18.937 12.8792 19.8085C13.8018 20.5048 14.6844 21.2528 15.5227 22.0489C16.3598 21.2515 17.2425 20.5034 18.1662 19.8085Z" fill="#001F6D"/>
<path d="M22.6149 17.8553C22.2739 18.2499 21.9013 18.6158 21.5007 18.9495C21.0555 19.3133 20.6104 19.658 20.168 20C21.0608 21.0171 21.8726 22.1028 22.5958 23.2471C23.7045 22.4757 24.7559 21.7672 25.5479 21.086C24.6531 19.9364 23.6726 18.8564 22.6149 17.8553Z" fill="#001F6D"/>
<path d="M24.7202 14.05C24.4195 15.0087 23.9895 15.9217 23.4421 16.7638C24.5449 17.8027 25.5725 18.9189 26.5172 20.1039C27.3846 19.0808 28.0267 17.8857 28.4015 16.5969C27.2245 15.6776 25.9953 14.8272 24.7202 14.05Z" fill="#001F6D"/>
<path d="M98.9331 14.682C98.9331 11.4977 97.98 8.87703 96.0738 6.81986C94.1677 4.76269 91.515 3.73501 88.1159 3.73683C84.6003 3.73683 81.6418 5.12561 79.2404 7.90315V4.51374H72.4131V31.1858H80.1253V13.7929C81.6801 11.5333 83.6582 10.4035 86.0596 10.4035C87.6125 10.4035 88.8606 10.8485 89.8037 11.7385C90.7467 12.6284 91.2165 13.9434 91.2128 15.6832V31.1858H98.9249L98.9331 14.682ZM56.2215 29.1588C57.6252 27.8037 58.327 26.0712 58.327 23.9611C58.327 20.8152 56.7558 18.7224 53.6135 17.6829C56.3444 16.6452 57.7099 14.6081 57.7099 11.5716C57.7311 10.6266 57.5498 9.68805 57.178 8.81926C56.8063 7.95047 56.2529 7.17165 55.5551 6.53535C54.1132 5.18214 51.913 4.50553 48.9545 4.50553H33.0906V31.1776H49.3969C52.5411 31.1831 54.816 30.5101 56.2215 29.1588ZM40.7454 9.79345H46.5677C48.8234 9.79345 49.9522 10.7564 49.954 12.6822C49.954 14.5333 48.8444 15.4598 46.625 15.4616H40.7454V9.79345ZM40.8 25.9061V20.1285H47.1248C49.4916 20.1285 50.675 21.1097 50.675 23.072C50.675 24.9633 49.4916 25.9079 47.1248 25.9061H40.8ZM60.8258 14.8352H68.5462V4.51374H60.8258V14.8352ZM128.372 14.433C128.059 12.5547 127.411 10.748 126.461 9.09861C125.538 7.5229 124.105 6.23535 122.162 5.23594C120.22 4.23654 117.914 3.73683 115.245 3.73683C113.647 3.7345 112.061 4.01225 110.559 4.55751C108.984 5.14052 107.51 5.96561 106.189 7.00314C104.725 8.1771 103.572 9.69452 102.833 11.4211C101.95 13.4432 101.514 15.6324 101.555 17.8388C101.555 22.2851 103.016 25.7502 105.938 28.2341C108.86 30.718 112.539 31.9655 116.974 31.9764C120.857 31.9764 124.111 31.4211 126.737 30.3104V24.2401C124.198 25.3345 121.458 25.8834 118.694 25.8514C116.327 25.8514 114.275 25.3955 112.536 24.4836C111.719 24.0884 111.003 23.51 110.446 22.7931C109.888 22.0763 109.502 21.2403 109.319 20.3501H128.08C128.629 18.4262 128.729 16.4018 128.372 14.433ZM121.136 15.3494H109.264C109.299 13.5713 109.928 12.1725 111.151 11.153C112.377 10.1342 113.928 9.59226 115.521 9.62657C117.664 9.62657 119.18 10.2749 120.07 11.5716C120.961 12.8683 121.316 14.1275 121.136 15.3494ZM60.8258 31.1858H68.5462V20.8644H60.8258V31.1858Z" fill="#001F6D"/>
<path d="M0.704642 52.3293C0.681594 51.0511 0.92143 49.7819 1.40922 48.6006C1.82193 47.5869 2.47867 46.6913 3.32087 45.9936C4.12286 45.3519 5.03292 44.8591 6.0081 44.5383C6.99568 44.2118 8.02948 44.0473 9.06946 44.0513C10.6142 44.0365 12.1427 44.3683 13.5427 45.0225V48.8851C12.5432 48.0481 11.287 47.6295 9.77404 47.6295C8.52128 47.596 7.29817 48.0144 6.32761 48.8086C5.38089 49.5964 4.90662 50.77 4.9048 52.3293C4.9048 53.7281 5.37543 54.784 6.31669 55.4971C7.30325 56.2258 8.5051 56.6024 9.73034 56.5667C11.4199 56.5667 12.728 56.1181 13.6547 55.2208V59.1956C12.2473 59.8509 10.7115 60.1827 9.15958 60.1668C8.10232 60.1733 7.05039 60.0164 6.04087 59.7017C5.07643 59.4024 4.17031 58.9397 3.36183 58.3339C2.52458 57.6868 1.86187 56.8405 1.4338 55.8719C0.933273 54.7592 0.684289 53.5495 0.704642 52.3293Z" fill="#001F6D"/>
<path d="M16.989 44.3824H21.0663V59.8358H16.989V44.3824Z" fill="#001F6D"/>
<path d="M23.9093 44.3824H36.69V48.0262H32.3479V59.8358H28.2706V48.0262H23.9011L23.9093 44.3824Z" fill="#001F6D"/>
<path d="M40.456 57.8497C39.0177 56.3032 38.2986 54.3883 38.2986 52.1049C38.2986 49.8216 39.0177 47.9067 40.456 46.3602C41.8979 44.8155 43.9334 44.0422 46.5624 44.0404C49.1913 44.0386 51.2259 44.8118 52.666 46.3602C54.1043 47.9031 54.8234 49.818 54.8234 52.1049C54.8234 54.3919 54.1043 56.3068 52.666 57.8497C51.224 59.3926 49.1895 60.1649 46.5624 60.1667C43.9352 60.1686 41.8998 59.3962 40.456 57.8497ZM49.5691 55.229C50.2828 54.4357 50.6387 53.3989 50.6369 52.1186C50.6351 50.8384 50.2791 49.8007 49.5691 49.0055C48.8572 48.2085 47.8559 47.811 46.5651 47.8128C45.2743 47.8146 44.2729 48.2122 43.5611 49.0055C42.8492 49.7988 42.4933 50.8365 42.4933 52.1186C42.4933 53.4007 42.8465 54.4375 43.5529 55.229C44.2666 56.026 45.2679 56.4235 46.5569 56.4217C47.8459 56.4199 48.85 56.0223 49.5691 55.229Z" fill="#001F6D"/>
<path d="M56.6094 48.2013C56.5838 47.6092 56.7102 47.0204 56.9765 46.4912C57.2428 45.9619 57.6402 45.51 58.1306 45.1784C59.1428 44.4726 60.3981 44.1197 61.8965 44.1197C63.5257 44.0759 65.1376 44.4637 66.5691 45.2441V47.0988C65.2144 46.2416 63.6313 45.818 62.0303 45.8842C59.6635 45.8842 58.4801 46.6347 58.4801 48.1356C58.4768 48.4272 58.536 48.7161 58.6538 48.9828C58.7715 49.2494 58.9452 49.4876 59.1629 49.6812C59.6502 50.1256 60.2292 50.4572 60.8588 50.6523C61.536 50.8739 62.2734 51.1256 63.0735 51.4128C63.8737 51.7001 64.6138 51.9955 65.2883 52.2964C65.9633 52.596 66.548 53.0676 66.9842 53.6642C67.4501 54.3123 67.6909 55.0955 67.6697 55.8938C67.6842 56.5726 67.5203 57.2433 67.1945 57.8388C66.8889 58.3863 66.4442 58.843 65.9055 59.1628C65.344 59.4925 64.7338 59.7307 64.0976 59.8686C63.396 60.0206 62.6799 60.0949 61.9621 60.0902C60.1165 60.1227 58.2942 59.673 56.675 58.7853V56.9333C58.2281 57.8774 60.0144 58.3664 61.831 58.3449C64.4781 58.3449 65.8008 57.5798 65.799 56.0497C65.8095 55.5217 65.6291 55.0077 65.291 54.6026C64.929 54.1806 64.4774 53.8451 63.9693 53.6205C63.3852 53.3549 62.7851 53.1265 62.1723 52.9366C61.5187 52.7323 60.8688 52.508 60.2224 52.2636C59.6055 52.0345 59.0089 51.7535 58.4392 51.4238C57.8976 51.111 57.4431 50.6671 57.1174 50.1326C56.7674 49.5506 56.5911 48.8804 56.6094 48.2013Z" fill="#001F6D"/>
<path d="M70.425 44.3824H75.693C80.0625 44.3824 82.2472 46.0456 82.2472 49.3721C82.2472 52.6986 80.0625 54.3618 75.693 54.3618H72.2766V59.833H70.425V44.3824ZM80.3629 49.3721C80.3805 48.8176 80.2594 48.2674 80.0106 47.7718C79.7855 47.3461 79.4357 46.9996 79.0083 46.7787C78.5619 46.5464 78.0832 46.3823 77.5883 46.2918C76.9912 46.1898 76.3861 46.1422 75.7804 46.1495H72.2766V52.5946H75.7804C77.2059 52.5946 78.3256 52.3594 79.1394 51.8888C79.9532 51.4183 80.3611 50.5794 80.3629 49.3721Z" fill="#001F6D"/>
<path d="M87.3897 59.8358H85.5381V44.3823H91.5762C92.5107 44.3703 93.4411 44.5088 94.3317 44.7927C95.1707 45.0755 95.9098 45.5963 96.4591 46.2918C97.0724 47.0817 97.3876 48.063 97.3493 49.063C97.3493 50.387 96.9679 51.4174 96.2051 52.1542C95.3786 52.9199 94.3415 53.4192 93.2284 53.5876L98.4526 59.8358H96.1395L91.0928 53.7436H87.3897V59.8358ZM87.3897 46.1577V51.9846H91.6663C92.6216 52.0213 93.5679 51.7881 94.3972 51.3116C95.1255 50.863 95.4896 50.1162 95.4896 49.0712C95.4896 48.0262 95.1255 47.2757 94.3972 46.8198C93.5653 46.3509 92.6201 46.1218 91.6663 46.1577H87.3897Z" fill="#001F6D"/>
<path d="M102.09 59.8358H100.086L106.807 44.3824H108.855L115.554 59.8358H113.571L111.984 56.1044H103.677L102.09 59.8358ZM107.577 46.8772L104.403 54.3837H111.258L108.063 46.8772C108.033 46.8034 107.951 46.6037 107.82 46.2809C107.689 46.6201 107.598 46.8198 107.577 46.8772Z" fill="#001F6D"/>
<path d="M121.799 59.8358H119.948V53.9843L113.879 44.3824H115.928L120.865 52.3156L125.8 44.3824H127.851L121.799 53.9843V59.8358Z" fill="#001F6D"/>
<path d="M127.488 66.0155H2.21753V69H127.488V66.0155Z" fill="#001F6D"/>
<path d="M127.488 36.9032H2.21753V38.3969H127.488V36.9032Z" fill="#001F6D"/>
</g>
<defs>
<clipPath id="clip0">
<rect width="136" height="69" fill="white"/>
</clipPath>
</defs>
</svg>
