<?xml version="1.0" encoding="UTF-8"?> <svg xmlns="http://www.w3.org/2000/svg" viewBox="0 0 97.49 96.3"> <title>листочки</title> <g id="Слой_2" data-name="Слой 2"> <g id="Слой_1-2" data-name="Слой 1"> <path d="M37.21,96.3c-.31-1.64-1.3-3.54-.79-4.87,2-5.41-.88-9.74-2.71-14.25-.41-1-2.29-2-3.54-2.09C14.31,74.2,6.7,64.21,2.72,50.31,0,41-.53,31.4.44,20.67c11.18,5.73,21.8,11,32.22,16.71a5.84,5.84,0,0,1,2.29,5,44.3,44.3,0,0,0,2,25.5c.38,1,.62,2.12,1.26,4.37C30.16,59.87,14.74,37.69,14.4,37.92L39.59,82.13C50.22,59.43,65.67,39.37,80.77,19c-16,14.84-28.22,32.53-39.16,51.47-7.59-14.71-5.72-32.38,6-43.64,6.71-6.43,15-11.51,23.28-15.92S88.33,3.69,97.49,0c-.74,9.43-1.15,19-2.37,28.41-.91,7-2.11,14.21-4.5,20.86C85,64.88,73.25,73.13,56.81,74.75c-12.15,1.19-13.07,1.88-16.6,13.64-.76,2.51-1.22,5.11-1.82,7.68Z" style="fill:#4bc959"></path> </g> </g> </svg> 