<?xml version="1.0" encoding="UTF-8"?> <svg xmlns="http://www.w3.org/2000/svg" width="64" height="45" viewBox="0 0 64 45" fill="none"> <path fill-rule="evenodd" clip-rule="evenodd" d="M24.7682 13.4394L25.7426 11.2577C25.0463 10.7665 24.6698 10.1721 24.8551 9.75844C25.1019 9.20693 26.2513 9.18608 27.425 9.71094C28.5987 10.2358 29.3507 11.1059 29.1027 11.6575C28.9185 12.0722 28.2245 12.187 27.3937 11.9958L26.2652 14.5205C25.811 15.5377 27.2072 16.4994 27.995 15.7115L33.4488 10.2578C32.7513 9.30657 32.5195 8.34838 32.9505 7.91852C33.4858 7.38207 34.8414 7.87218 35.9792 9.01228C37.1193 10.1501 37.6094 11.5057 37.073 12.041C36.6431 12.472 35.6849 12.2402 34.7337 11.5427L29.5453 16.73C28.44 17.833 29.6345 19.6752 31.0932 19.1168L33.3259 18.2629C33.1823 17.4252 33.3352 16.7392 33.7581 16.577C34.3235 16.3627 35.1508 17.1598 35.6096 18.3602C36.0684 19.5617 35.985 20.7087 35.4196 20.9243C34.9979 21.0865 34.4255 20.6763 33.9725 19.9556L31.391 20.9439C30.3494 21.3437 30.6588 23.0075 31.771 23.0075H39.4818C39.6614 21.8419 40.177 20.9996 40.7841 20.9996C41.5419 20.9996 42.1536 22.3054 42.1525 23.9159C42.1536 25.5252 41.5419 26.831 40.7841 26.831C40.177 26.831 39.6614 25.9887 39.4818 24.8231H32.1464C30.5846 24.8231 30.1281 26.97 31.5532 27.6073L33.7338 28.5817C34.225 27.8865 34.8194 27.5088 35.2331 27.6942C35.7846 27.941 35.8054 29.0903 35.2806 30.264C34.7557 31.4377 33.8856 32.1897 33.3341 31.9418C32.9193 31.7575 32.8046 31.0635 32.9957 30.2328L30.4711 29.1054C29.4549 28.6501 28.4921 30.0462 29.28 30.8341L34.7337 36.2878C35.6849 35.5903 36.6431 35.3586 37.073 35.7896C37.6094 36.3249 37.1193 37.6805 35.9792 38.8183C34.8414 39.9584 33.4858 40.4485 32.9505 39.912C32.5195 39.4822 32.7513 38.524 33.4488 37.5727L28.2592 32.3832C27.1573 31.2802 25.3151 32.4724 25.8736 33.93L26.7287 36.165C27.5663 36.0202 28.2523 36.1743 28.4145 36.5972C28.6288 37.1626 27.8317 37.9898 26.6313 38.4487C25.4298 38.9075 24.2828 38.8241 24.0673 38.2587C23.905 37.8369 24.3152 37.2645 25.0359 36.8115L24.0476 34.2289C23.6478 33.1873 21.984 33.4966 21.984 34.6089V42.3208C23.1496 42.5004 23.9919 43.016 23.9919 43.6232C23.9919 44.3809 22.6862 44.9927 21.0768 44.9915C19.4663 44.9927 18.1605 44.3809 18.1605 43.6232C18.1605 43.016 19.0028 42.5004 20.1684 42.3208V34.9855C20.1684 33.4237 18.0215 32.9671 17.3842 34.3923L16.4098 36.5728C17.105 37.0641 17.4827 37.6585 17.2973 38.0721C17.0505 38.6236 15.9012 38.6445 14.7275 38.1196C13.5538 37.5948 12.8018 36.7246 13.0498 36.1731C13.234 35.7583 13.928 35.6436 14.7587 35.8348L15.8861 33.3101C16.3414 32.294 14.9453 31.3312 14.1574 32.119L8.7037 37.5727C9.4012 38.524 9.63293 39.4822 9.20191 39.912C8.66662 40.4485 7.31102 39.9584 6.17323 38.8183C5.03313 37.6805 4.54303 36.3249 5.07948 35.7896C5.50933 35.3586 6.46753 35.5903 7.41877 36.2878L12.6083 31.0983C13.7113 29.9964 12.5191 28.1542 11.0615 28.7126L8.82652 29.5677C8.97135 30.4054 8.81725 31.0913 8.39434 31.2535C7.82893 31.4679 7.00166 30.6707 6.54284 29.4704C6.08402 28.2689 6.16744 27.1218 6.73285 26.9063C7.1546 26.7441 7.72697 27.1543 8.17999 27.8749L10.7626 26.8866C11.8042 26.4869 11.4949 24.8231 10.3826 24.8231H2.67067C2.49108 25.9887 1.97548 26.831 1.36835 26.831C0.610604 26.831 -0.001157 25.5252 1.64308e-06 23.9159C-0.001157 22.3054 0.610604 20.9996 1.36835 20.9996C1.97548 20.9996 2.49108 21.8419 2.67067 23.0075H10.006C11.5679 23.0075 12.0244 20.8605 10.5992 20.2233L8.41867 19.2489C7.92741 19.944 7.33303 20.3218 6.91939 20.1364C6.36788 19.8896 6.34703 18.7402 6.87189 17.5665C7.39675 16.3928 8.26689 15.6409 8.81841 15.8888C9.2332 16.073 9.3479 16.7671 9.15673 17.5978L11.6814 18.7252C12.6975 19.1805 13.6604 17.7843 12.8725 16.9965L7.41877 11.5427C6.46753 12.2402 5.50933 12.472 5.07948 12.041C4.54303 11.5057 5.03313 10.1501 6.17323 9.01228C7.31102 7.87218 8.66662 7.38207 9.20191 7.91852C9.63293 8.34838 9.4012 9.30657 8.7037 10.2578L13.8932 15.4474C14.9951 16.5504 16.8373 15.3581 16.2789 13.9006L15.4238 11.6656C14.5861 11.8081 13.9002 11.6563 13.738 11.2334C13.5236 10.668 14.3208 9.84071 15.5211 9.38189C16.7226 8.92306 17.8697 9.00649 18.0852 9.5719C18.2474 9.99365 17.8384 10.566 17.1166 11.019L18.1049 13.6017C18.5046 14.6433 20.1684 14.3339 20.1684 13.2216V5.50971C19.0028 5.33012 18.1605 4.81453 18.1605 4.2074C18.1605 3.44965 19.4663 2.83789 21.0768 2.83789C22.6862 2.83789 23.9919 3.44965 23.9919 4.2074C23.9919 4.81453 23.1496 5.33012 21.984 5.50971V12.8462C21.984 14.4069 24.1333 14.8669 24.7682 13.4394Z" fill="#303F82"></path> <path fill-rule="evenodd" clip-rule="evenodd" d="M54.2174 5.78007L54.7376 4.61564C54.3657 4.35263 54.1652 4.03516 54.2637 3.81502C54.3958 3.52072 55.0099 3.50914 55.6356 3.78953C56.2624 4.06992 56.6644 4.53453 56.5323 4.82883C56.4339 5.05013 56.0631 5.11154 55.6193 5.00958L55.0168 6.35707C54.7735 6.90048 55.5197 7.41375 55.9403 6.99317L58.8519 4.0815C58.48 3.57402 58.356 3.0619 58.5866 2.83249C58.8716 2.54631 59.5958 2.80816 60.2029 3.41645C60.8112 4.02357 61.0731 4.74772 60.7869 5.03275C60.5575 5.26332 60.0453 5.13934 59.5379 4.76742L56.7687 7.53657C56.1778 8.12632 56.8162 9.10884 57.5937 8.81107L58.7859 8.35573C58.7094 7.90733 58.7917 7.5412 59.0176 7.45546C59.3189 7.34076 59.7603 7.76598 60.0059 8.40786C60.2504 9.04859 60.2064 9.66035 59.904 9.77622C59.6792 9.86196 59.3733 9.64413 59.1312 9.25946L57.7536 9.78664C57.1974 9.99984 57.3619 10.8885 57.9563 10.8885H62.073C62.168 10.2663 62.4437 9.81561 62.7681 9.81561C63.1725 9.81561 63.4992 10.5131 63.4992 11.3728C63.4992 12.2325 63.1725 12.93 62.7681 12.93C62.4437 12.93 62.168 12.4793 62.073 11.8571H58.1568C57.3225 11.8571 57.0792 13.003 57.8393 13.3437L59.0037 13.8639C59.2667 13.4931 59.5842 13.2915 59.8043 13.39C60.0986 13.5221 60.1102 14.1362 59.8298 14.7618C59.5494 15.3887 59.0848 15.7907 58.7905 15.6586C58.5692 15.5601 58.5078 15.1894 58.6098 14.7456L57.2623 14.1431C56.72 13.8998 56.2056 14.646 56.6262 15.0666L59.5379 17.9782C60.0453 17.6063 60.5575 17.4823 60.7869 17.7129C61.0731 17.9979 60.8112 18.7221 60.2029 19.3292C59.5958 19.9375 58.8716 20.1993 58.5866 19.9132C58.356 19.6837 58.48 19.1716 58.8519 18.6641L56.0816 15.8938C55.493 15.3052 54.5094 15.9413 54.8083 16.7188L55.2636 17.9122C55.712 17.8357 56.0782 17.918 56.1639 18.1439C56.2786 18.4452 55.8534 18.8866 55.2115 19.1322C54.5708 19.3767 53.959 19.3327 53.8431 19.0303C53.7574 18.8055 53.9752 18.4996 54.3599 18.2575L53.8327 16.8787C53.6195 16.3237 52.7309 16.4882 52.7309 17.0826V21.1992C53.353 21.2943 53.8038 21.57 53.8038 21.8944C53.8038 22.2988 53.1063 22.6255 52.2465 22.6255C51.3868 22.6255 50.6893 22.2988 50.6893 21.8944C50.6893 21.57 51.14 21.2943 51.7622 21.1992V17.283C51.7622 16.4488 50.6163 16.2055 50.2757 16.9656L49.7555 18.13C50.1262 18.393 50.3278 18.7105 50.2293 18.9306C50.0973 19.2249 49.4832 19.2365 48.8575 18.9561C48.2307 18.6757 47.8286 18.2111 47.9607 17.9168C48.0592 17.6955 48.43 17.6341 48.8737 17.7361L49.4762 16.3886C49.7195 15.8463 48.9734 15.3319 48.5528 15.7525L45.6411 18.6641C46.0131 19.1716 46.137 19.6837 45.9065 19.9132C45.6214 20.1993 44.8973 19.9375 44.2902 19.3292C43.6819 18.7221 43.42 17.9979 43.7062 17.7129C43.9356 17.4823 44.4477 17.6063 44.9552 17.9782L47.7255 15.2079C48.3141 14.6193 47.678 13.6356 46.9006 13.9346L45.7072 14.3899C45.7836 14.8383 45.7014 15.2044 45.4755 15.2902C45.1742 15.4049 44.7328 14.9797 44.4871 14.3378C44.2427 13.6971 44.2867 13.0853 44.5891 12.9694C44.8139 12.8837 45.1197 13.1015 45.3619 13.4862L46.7407 12.959C47.2957 12.7458 47.1311 11.8571 46.5368 11.8571H42.4201C42.3251 12.4793 42.0494 12.93 41.7249 12.93C41.3206 12.93 40.9938 12.2325 40.9938 11.3728C40.9938 10.5131 41.3206 9.81561 41.7249 9.81561C42.0494 9.81561 42.3251 10.2663 42.4201 10.8885H46.3363C47.1705 10.8885 47.4139 9.74262 46.6538 9.40198L45.4894 8.88175C45.2263 9.25251 44.9089 9.45412 44.6887 9.35563C44.3944 9.22355 44.3829 8.60947 44.6632 7.9838C44.9436 7.35698 45.4082 6.95493 45.7025 7.08702C45.9238 7.1855 45.9853 7.55626 45.8833 8.00002L47.2308 8.60252C47.773 8.84583 48.2875 8.09967 47.8669 7.67908L44.9552 4.76742C44.4477 5.13934 43.9356 5.26332 43.7062 5.03275C43.42 4.74772 43.6819 4.02357 44.2902 3.41645C44.8973 2.80816 45.6214 2.54631 45.9065 2.83249C46.137 3.0619 46.0131 3.57402 45.6411 4.0815L48.4114 6.85181C49 7.4404 49.9837 6.80431 49.6848 6.02686L49.2294 4.83346C48.781 4.90877 48.4149 4.82767 48.3292 4.60173C48.2145 4.30049 48.6397 3.85905 49.2816 3.61341C49.9223 3.36894 50.5341 3.41297 50.6499 3.71538C50.7357 3.94015 50.5179 4.24603 50.1332 4.48819L50.6604 5.86697C50.8736 6.42196 51.7622 6.25743 51.7622 5.66305V1.5464C51.14 1.45139 50.6893 1.17564 50.6893 0.851219C50.6893 0.446853 51.3868 0.120117 52.2465 0.120117C53.1063 0.120117 53.8038 0.446853 53.8038 0.851219C53.8038 1.17564 53.353 1.45139 52.7309 1.5464V5.4626C52.7309 6.29682 53.8779 6.54245 54.2174 5.78007Z" fill="#303F82"></path> <path fill-rule="evenodd" clip-rule="evenodd" d="M54.7736 30.6976L55.215 29.7082C54.8987 29.4857 54.7284 29.2157 54.8118 29.028C54.9242 28.7789 55.4456 28.7685 55.9774 29.0072C56.5092 29.2447 56.8498 29.6398 56.7375 29.8901C56.654 30.0778 56.34 30.1287 55.9635 30.043L55.4514 31.1877C55.2451 31.6489 55.8789 32.0845 56.2358 31.7277L58.7083 29.2551C58.392 28.8241 58.2866 28.3896 58.4824 28.195C58.7245 27.9517 59.3386 28.1741 59.8554 28.6897C60.3709 29.2065 60.5934 29.8205 60.3501 30.0627C60.1554 30.2585 59.721 30.1531 59.2899 29.8368L56.9379 32.1888C56.4374 32.6893 56.9785 33.5236 57.64 33.271L58.6515 32.884C58.5866 32.504 58.6562 32.1923 58.8473 32.1193C59.1034 32.022 59.4788 32.3835 59.6873 32.928C59.8947 33.4726 59.8577 33.9917 59.6016 34.0901C59.4093 34.1631 59.1509 33.9777 58.9447 33.651L57.7744 34.0982C57.3029 34.2802 57.4431 35.0344 57.9471 35.0344H61.4427C61.5238 34.5061 61.7578 34.1237 62.0324 34.1237C62.3766 34.1237 62.6535 34.7158 62.6535 35.4457C62.6535 36.1757 62.3766 36.7677 62.0324 36.7677C61.7578 36.7677 61.5238 36.3854 61.4427 35.8571H58.1174C57.4095 35.8571 57.2021 36.8303 57.8486 37.12L58.8369 37.5614C59.0594 37.2463 59.3293 37.0748 59.517 37.1582C59.7661 37.2706 59.7766 37.792 59.5379 38.3238C59.3004 38.8556 58.9053 39.1963 58.655 39.0839C58.4673 39.0004 58.4163 38.6865 58.5021 38.3099L57.3573 37.7978C56.8973 37.5915 56.4605 38.2253 56.8174 38.5822L59.2899 41.0547C59.721 40.7384 60.1554 40.633 60.3501 40.8288C60.5934 41.0709 60.3709 41.685 59.8554 42.2018C59.3386 42.7174 58.7245 42.9398 58.4824 42.6965C58.2866 42.5019 58.392 42.0674 58.7083 41.6364L56.3551 39.2843C55.8557 38.7838 55.0204 39.3249 55.2741 39.9853L55.6611 40.9979C56.0411 40.9331 56.3528 41.0026 56.4258 41.1938C56.5231 41.4498 56.1616 41.8252 55.6171 42.0338C55.0725 42.2412 54.5534 42.2041 54.4549 41.948C54.3819 41.7557 54.5673 41.4973 54.8941 41.2911L54.4468 40.1209C54.2649 39.6493 53.5106 39.7883 53.5106 40.2935V43.7891C54.039 43.8702 54.4213 44.1043 54.4213 44.3789C54.4213 44.723 53.8293 44.9999 53.0993 44.9999C52.3694 44.9999 51.7773 44.723 51.7773 44.3789C51.7773 44.1043 52.1597 43.8702 52.688 43.7891V40.4638C52.688 39.7559 51.7148 39.5485 51.4251 40.195L50.9837 41.1833C51.2988 41.4058 51.4703 41.6757 51.3869 41.8634C51.2745 42.1126 50.7531 42.123 50.2213 41.8843C49.6895 41.6468 49.3488 41.2517 49.4612 41.0014C49.5446 40.8137 49.8586 40.7627 50.2352 40.8485L50.7473 39.7037C50.9535 39.2438 50.3198 38.807 49.9629 39.1638L47.4904 41.6364C47.8067 42.0674 47.9121 42.5019 47.7163 42.6965C47.4741 42.9398 46.8601 42.7174 46.3433 42.2018C45.8277 41.685 45.6053 41.0709 45.8486 40.8288C46.0432 40.633 46.4777 40.7384 46.9087 41.0547L49.2608 38.7015C49.7613 38.2021 49.2202 37.3668 48.5598 37.6205L47.5471 38.0075C47.612 38.3875 47.5425 38.6992 47.3513 38.7722C47.0953 38.8695 46.7199 38.508 46.5113 37.9635C46.3039 37.4189 46.341 36.8998 46.597 36.8013C46.7894 36.7284 47.0478 36.9137 47.254 37.2405L48.4242 36.7932C48.8958 36.6113 48.7567 35.8571 48.2516 35.8571H44.756C44.6749 36.3854 44.4408 36.7677 44.1662 36.7677C43.8221 36.7677 43.5452 36.1757 43.5452 35.4457C43.5452 34.7158 43.8221 34.1237 44.1662 34.1237C44.4408 34.1237 44.6749 34.5061 44.756 35.0344H48.0813C48.7892 35.0344 48.9966 34.0612 48.3501 33.7715L47.3617 33.3301C47.1393 33.6452 46.8693 33.8167 46.6816 33.7333C46.4325 33.6209 46.4221 33.0995 46.6608 32.5677C46.8983 32.0359 47.2934 31.6952 47.5437 31.8076C47.7314 31.891 47.7823 32.205 47.6966 32.5816L48.8413 33.0937C49.3013 33.2999 49.7381 32.6662 49.3813 32.3093L46.9087 29.8368C46.4777 30.1531 46.0432 30.2585 45.8486 30.0627C45.6053 29.8205 45.8277 29.2065 46.3433 28.6897C46.8601 28.1741 47.4741 27.9517 47.7163 28.195C47.9121 28.3896 47.8067 28.8241 47.4904 29.2551L49.8436 31.6072C50.3429 32.1077 51.1783 31.5666 50.9246 30.9062L50.5376 29.8935C50.1575 29.9573 49.8459 29.8889 49.7729 29.6977C49.6755 29.4417 50.037 29.0663 50.5816 28.8577C51.1262 28.6503 51.6452 28.6874 51.7437 28.9435C51.8167 29.1358 51.6313 29.3942 51.3046 29.6004L51.7518 30.7706C51.9337 31.2422 52.688 31.1032 52.688 30.598V27.1024C52.1597 27.0213 51.7773 26.7872 51.7773 26.5126C51.7773 26.1685 52.3694 25.8916 53.0993 25.8916C53.8293 25.8916 54.4213 26.1685 54.4213 26.5126C54.4213 26.7872 54.039 27.0213 53.5106 27.1024V30.4277C53.5106 31.1356 54.4851 31.3442 54.7736 30.6976Z" fill="#303F82"></path> </svg> 